OpenSim_Sub04_EMGStiffKnee_GRF.mot
version=1
nRows=52
nColumns=19
inDegrees=no
endheader
time	lFx	lFy	lFz	lCOPx	lCOPy	lCOPz	rFx	rFy	rFz	rCOPx	rCOPy	rCOPz	lMx	lMy	lMz	rMx	rMy	rMz
20.69000000	2.44755502	-0.60170574	-2.72533517	0.00000176	0	-0.00000121	-12.33980077	579.46205472	-53.56881590	0.84599567	0	-0.41611503	0	-0.00000472	0	0	-2.50659509	-0.00000000
20.70000000	2.38910647	-0.60601351	-2.80511093	0.00000084	0	-0.00000081	-11.57851336	590.82669603	-54.33221459	0.83956852	0	-0.41655799	0	-0.00000079	0	0	-1.93169113	0
20.71000000	2.31050221	-0.66511724	-2.91512668	-0.00000423	0	0.00000225	-10.43651563	602.56930573	-54.85642325	0.83309664	0	-0.41715882	0	0.00001611	0	0	-1.32930760	0.00000000
20.72000000	2.21686418	-0.75300651	-2.98835588	-0.00001618	0	0.00001002	-8.83786041	614.29787630	-55.05415750	0.82628386	0	-0.41786047	0	0.00005261	0	0	-0.70489895	0
20.73000000	2.10518706	-0.79192294	-3.01748337	-0.00003347	0	0.00002216	-6.81372244	625.87358331	-55.02682545	0.81888056	0	-0.41860527	0	0.00009994	0	0	-0.00067568	-0.00000000
20.74000000	2.01846265	-0.78669315	-3.03080508	-0.00004105	0	0.00002978	-4.41956650	637.44074511	-54.83478718	0.81106523	0	-0.41934138	0	0.00010623	0	0	0.76382735	0.00000000
20.75000000	1.99056713	-0.77912874	-3.06741243	0.00000136	0	0.00000706	-1.80945652	648.87593642	-54.48331866	0.80322804	0	-0.42000762	0	-0.00005407	0	0	1.49556100	0.00000000
20.76000000	1.98686649	-0.78287702	-3.09971285	0.00015983	0	-0.00009134	0.91108990	659.31661114	-54.00256139	0.79587293	0	-0.42055118	0	-0.00056823	0	0	2.16840810	-0.00000000
20.77000000	1.95607611	-0.72266238	-3.07841532	0.00048374	0	-0.00030618	3.59519011	667.71864816	-53.58668903	0.78939083	0	-0.42096203	0	-0.00153310	0	0	2.76103327	0
20.78000000	1.81403214	-0.43578613	-2.99866407	0.00087366	0	-0.00059019	6.12235735	673.10040675	-53.47828448	0.78357643	0	-0.42126385	0	-0.00253490	0	0	3.23469343	0
20.79000000	1.46080734	0.31879348	-2.88998600	0.00083810	0	-0.00064434	8.22633198	675.10152596	-53.83003049	0.77835814	0	-0.42145874	0	-0.00194058	0	0	3.64828973	0
20.80000000	0.87856647	1.54567443	-2.76819080	-0.00074916	0	0.00026700	9.56967233	673.91961708	-54.50660155	0.77379164	0	-0.42155593	0	0.00367608	0	0	3.98248753	-0.00000000
20.81000000	0.14194896	3.04842966	-2.63849177	-0.00546957	0	0.00325996	10.12377736	669.82311195	-55.21422203	0.76981825	0	-0.42157830	0	0.01860308	0	0	4.18427270	0
20.82000000	-0.73436092	4.58068603	-2.51652211	-0.01388993	0	0.00895936	10.22601003	663.17009362	-55.74849617	0.76622687	0	-0.42154645	0	0.04296501	0	0	4.31667538	0.00000000
20.83000000	-1.97396174	6.20651340	-2.31962739	-0.02174742	0	0.01504406	10.43130208	654.31189256	-56.01870960	0.76272057	0	-0.42144203	0	0.06088343	0	0	4.42473880	0
20.84000000	-3.90935121	8.15063159	-1.96702359	-0.01385341	0	0.01204488	11.17455422	643.51583380	-55.97039279	0.75916442	0	-0.42125025	0	0.02331584	0	0	4.45353857	0
20.85000000	-6.71777357	10.92820417	-1.47374137	0.04008794	0	-0.02020164	12.78058600	630.65428538	-55.66810323	0.75565836	0	-0.42100233	0	-0.15954278	0	0	4.41382722	0
20.86000000	-10.13039885	16.04060228	-0.75644515	0.17515399	0	-0.10746680	15.31045182	614.95485179	-55.09338514	0.75242815	0	-0.42074248	0	-0.57643038	0	0	4.37139710	0
20.87000000	-12.79452704	26.76078378	0.29106536	0.38446452	0	-0.25255957	18.47477354	595.18306568	-53.89689101	0.74939671	0	-0.42047805	0	-1.16072789	0	0	4.28111478	0
20.88000000	-12.15150637	48.52293678	1.82947282	0.59395532	0	-0.41413266	21.77598355	570.56569110	-51.78963498	0.74651006	0	-0.42017282	0	-1.61019769	0	0	4.15488648	0
20.89000000	-6.57457487	87.59714756	4.41979186	0.75019795	0	-0.54904218	24.87782219	541.15810054	-48.48510553	0.74372980	0	-0.41979104	0	-1.64975157	0	0	4.00501611	0
20.90000000	0.40376216	146.93397606	9.09331622	0.83444345	0	-0.62731153	27.84049282	507.47175673	-43.86608356	0.74090946	0	-0.41937031	0	-1.43613944	0	0	3.81517644	0
20.91000000	4.07811638	223.35766458	15.84814238	0.86223806	0	-0.65614226	30.97260899	470.45612543	-38.14715597	0.73763231	0	-0.41901377	0	-1.18511260	0	0	3.72633552	-0.00000000
20.92000000	4.36909730	308.79742453	22.84350713	0.86288310	0	-0.65910547	34.44191302	430.90400637	-31.57763552	0.73378020	0	-0.41878094	0	-0.58714282	0	0	3.69966636	-0.00000000
20.93000000	3.18141860	393.34188728	29.85964560	0.85637402	0	-0.65406371	37.44217889	388.44629194	-24.61422092	0.72993693	0	-0.41894690	0	0.09505433	0	0	3.56619601	0
20.94000000	1.65102695	469.14624703	36.60861525	0.85026124	0	-0.64934217	38.69684834	342.31894196	-17.80158317	0.72771450	0	-0.42022639	0	0.68387957	0	0	3.28075990	0
20.95000000	0.23625862	531.76238522	42.78425154	0.84562187	0	-0.64706519	37.20910582	292.45687973	-11.52248582	0.72910440	0	-0.42356764	0	1.03387865	0	0	2.85649813	-0.00000000
20.96000000	-0.76003387	580.35368208	48.37396625	0.84161150	0	-0.64682811	32.39729414	240.09097550	-6.17197277	0.73557240	0	-0.42972765	0	1.01971341	0	0	2.25482980	0
20.97000000	-1.09262841	616.99017408	53.52217511	0.83751330	0	-0.64770214	24.30761863	187.68993470	-2.34433060	0.74458131	0	-0.43752709	0	0.66676622	0	0	1.56484708	0
20.98000000	-0.58125848	644.65506943	58.44762394	0.83311141	0	-0.64890825	13.92393682	138.49700472	-0.32285719	0.74233653	0	-0.44004893	0	0.04081167	0	0	0.93225721	-0.00000000
20.99000000	0.62551424	666.00130604	63.22067478	0.82866280	0	-0.65005842	2.97526359	95.47232809	0.30881550	0.69898342	0	-0.42042381	0	-0.75122394	0	0	0.45601548	0.00000000
21	2.16883771	682.59547279	67.57026635	0.82423669	0	-0.65102852	-6.28354004	60.45213819	0.20764556	0.57572527	0	-0.35384450	0	-1.57620798	0	0	0.19122659	0.00000000
21.01000000	3.97301561	694.91836838	71.07190601	0.81946610	0	-0.65176796	-10.91903662	33.73106081	-0.18720058	0.36302537	0	-0.22952818	0	-2.35171873	0	0	0.09532601	-0.00000000
21.02000000	6.18491961	703.39321151	73.43724645	0.81393706	0	-0.65226554	-9.35164464	14.65518376	-0.65109608	0.14823076	0	-0.09713679	0	-2.97304484	0	0	0.03904071	0.00000000
21.03000000	9.02065486	708.14741019	74.56033297	0.80750823	0	-0.65253510	-4.79633650	3.41531274	-0.72996662	0.02383915	0	-0.01782816	0	-3.36182093	0	0	0.00635649	-0.00000000
21.04000000	12.41448594	709.14177218	74.54998447	0.80046829	0	-0.65259611	-1.37186993	-0.86354533	-0.48377424	-0.01986088	0	0.01123529	0	-3.56690633	0	0	-0.00516817	0.00000000
21.05000000	16.17809844	706.33441314	73.49727931	0.79296721	0	-0.65246603	0.17936299	-1.37298938	-0.37274073	-0.02230841	0	0.01376503	0	-3.59019881	0	0	-0.00584544	0.00000000
21.06000000	20.20976705	699.98935007	71.59496599	0.78511130	0	-0.65219603	0.50494427	-0.69170137	-0.31653255	-0.01275818	0	0.00814109	0	-3.44653782	0	0	-0.00335249	0.00000000
21.07000000	24.27833578	690.71392574	69.25725886	0.77698666	0	-0.65185038	0.31960802	0.01463163	-0.24126680	-0.00440865	0	0.00293718	0	-3.20129404	0	0	-0.00116284	0.00000000
21.08000000	28.04839862	679.41572597	66.91828098	0.76879418	0	-0.65148943	0.07215685	0.40991774	-0.23103732	-0.00019180	0	0.00022241	0	-2.94971135	0	0	-0.00005393	-0.00000000
21.09000000	31.22647832	667.37518919	64.89901297	0.76074972	0	-0.65117222	-0.06246017	0.58577815	-0.22733754	0.00100794	0	-0.00059519	0	-2.76618791	0	0	0.00026316	0.00000000
21.10000000	33.91126985	655.82595082	63.38708900	0.75297663	0	-0.65091410	-0.07830629	0.62038538	-0.21299845	0.00086367	0	-0.00053878	0	-2.67066547	0	0	0.00022651	-0.00000000
21.11000000	36.26533019	645.77968969	62.41786000	0.74549592	0	-0.65072252	-0.06449208	0.55373228	-0.22363373	0.00043087	0	-0.00027766	0	-2.66603932	0	0	0.00011333	-0.00000000
21.12000000	38.24533613	637.85057231	61.84937118	0.73828276	0	-0.65057749	-0.05239263	0.45916341	-0.19361806	0.00011976	0	-0.00008187	0	-2.71674804	0	0	0.00003171	-0.00000000
21.13000000	39.66190041	632.35989841	61.41886422	0.73141156	0	-0.65044075	-0.05395682	0.43338621	-0.16032946	-0.00001709	0	0.00000721	0	-2.75612805	0	0	-0.00000428	0.00000000
21.14000000	40.57551680	629.30738998	60.80974459	0.72484516	0	-0.65029926	-0.03722458	0.39669838	-0.14062760	-0.00004539	0	0.00002741	0	-2.70803049	0	0	-0.00001178	-0.00000000
21.15000000	41.32585612	628.37465253	59.82118952	0.71842439	0	-0.65012013	-0.01387505	0.36791396	-0.08926057	-0.00003191	0	0.00002013	0	-2.51411795	0	0	-0.00000842	0.00000000
21.16000000	42.23120272	629.19263100	58.54121640	0.71210721	0	-0.64989438	0.00246484	0.35193905	-0.04853360	-0.00001308	0	0.00000873	0	-2.19899264	0	0	-0.00000393	0.00000000
21.17000000	43.43381829	631.21721333	57.18971609	0.70595155	0	-0.64962307	0.00927241	0.38470449	-0.06781566	-0.00000080	0	0.00000118	0	-1.82221138	0	0	-0.00000153	0.00000000
21.18000000	44.89052834	633.90277750	55.93625409	0.69997724	0	-0.64931962	0.01309208	0.50519088	-0.10817340	0.00000431	0	-0.00000197	0	-1.42796493	0	0	-0.00000104	0.00000000
21.19000000	46.60933587	636.57860787	54.90481165	0.69403221	0	-0.64900968	0.02933470	0.62301113	-0.12845387	0.00000321	0	-0.00000173	0	-1.05399816	0	0	-0.00000083	0.00000000
21.20000000	48.53788065	638.51204962	54.15711840	0.68814595	0	-0.64877444	0.05391205	0.67988768	-0.09893642	-0.00000574	0	0.00000204	0	-0.76741663	0	0	0.00000161	-0.00000000
